<svg width="70" height="68" viewBox="0 0 70 68" fill="none" xmlns="http://www.w3.org/2000/svg">
<path d="M67.5249 23.7379C71.712 19.7522 69.8027 15.0968 67.5249 12.8329L57.476 3.26719C53.2555 -0.718542 48.3985 1.09895 46.0203 3.26719L40.3259 8.71967H31.6504C25.2861 8.71967 21.6015 11.9083 19.7257 15.5751L4.8533 29.7325V42.4868L2.47506 44.7188C-1.71199 48.7364 0.197305 53.3599 2.47506 55.6238L12.524 65.1895C14.3328 66.9114 16.2755 67.5491 18.1178 67.5491C20.4961 67.5491 22.6733 66.4331 23.9797 65.1895L33.0237 56.5485H45.0489C50.7433 56.5485 53.624 53.1686 54.6624 49.8524C58.4474 48.8958 60.5242 46.1537 61.3616 43.4753C66.5536 42.1998 68.4963 37.5126 68.4963 34.2284V24.6626H66.5201L67.5249 23.7379ZM61.7971 34.2284C61.7971 35.6632 61.1606 37.4169 58.4474 37.4169H55.0978V40.6055C55.0978 42.0404 54.4614 43.7941 51.7482 43.7941H48.3985V46.9827C48.3985 48.4176 47.7621 50.1713 45.0489 50.1713H30.277L19.2902 60.6298C18.2518 61.5545 17.6489 61.0125 17.2804 60.6617L7.26503 51.1597C6.29364 50.1713 6.86308 49.5973 7.23154 49.2466L11.5526 45.1014V32.3471L18.2518 25.9699V31.0398C18.2518 34.898 20.9315 40.6055 28.3007 40.6055C35.6699 40.6055 38.3496 34.898 38.3496 31.0398H61.7971V34.2284ZM62.7685 19.2101L57.0741 24.6626H31.6504V31.0398C31.6504 32.4746 31.0139 34.2284 28.3007 34.2284C25.5875 34.2284 24.9511 32.4746 24.9511 31.0398V21.474C24.9511 20.0073 25.5205 15.0968 31.6504 15.0968H43.0726L50.7098 7.82687C51.7482 6.90218 52.3511 7.44424 52.7196 7.79498L62.735 17.297C63.7064 18.2854 63.1369 18.8594 62.7685 19.2101Z" fill="#FFFEFE"/>
</svg>
